<?xml version="1.0" encoding="UTF-8"?>
<!DOCTYPE svg PUBLIC "-//W3C//DTD SVG 1.1//EN" "http://www.w3.org/Graphics/SVG/1.1/DTD/svg11.dtd">
<svg xmlns="http://www.w3.org/2000/svg" version="1.1" width="200px" height="200px" style="shape-rendering:geometricPrecision; text-rendering:geometricPrecision; image-rendering:optimizeQuality; fill-rule:evenodd; clip-rule:evenodd" xmlns:xlink="http://www.w3.org/1999/xlink">
<g><path style="opacity:0.842" fill="#fefffe" d="M 65.5,61.5 C 75.5685,61.1145 82.7352,65.4478 87,74.5C 88.4533,90.0957 88.9533,105.762 88.5,121.5C 95.8333,122.833 103.167,122.833 110.5,121.5C 110.082,106.117 110.582,90.7838 112,75.5C 116.234,65.6068 123.734,61.1068 134.5,62C 144.852,64.6851 150.518,71.3518 151.5,82C 149.62,103.201 139.12,118.368 120,127.5C 119.667,133.833 119.333,140.167 119,146.5C 112.984,159.806 103.151,163.639 89.5,158C 84.4488,155.28 81.2822,151.113 80,145.5C 79.5005,139.175 79.3338,132.842 79.5,126.5C 57.5769,116.67 47.4102,99.6701 49,75.5C 52.5927,68.3939 58.0927,63.7272 65.5,61.5 Z M 65.5,70.5 C 71.9797,69.9846 76.4797,72.6512 79,78.5C 79.6667,91.5 79.6667,104.5 79,117.5C 65.5124,109.025 58.0124,96.8583 56.5,81C 57.958,76.0512 60.958,72.5512 65.5,70.5 Z M 128.5,70.5 C 139.321,70.4879 143.821,75.8212 142,86.5C 139.687,100.467 132.354,110.801 120,117.5C 119.333,104.833 119.333,92.1667 120,79.5C 121.378,74.9592 124.211,71.9592 128.5,70.5 Z M 88.5,130.5 C 96.1648,131.598 103.831,131.765 111.5,131C 110.926,136.528 110.092,142.028 109,147.5C 103.553,152.194 97.7195,152.694 91.5,149C 90.5399,147.581 89.7065,146.081 89,144.5C 88.5008,139.845 88.3342,135.179 88.5,130.5 Z"/></g>
</svg>
